<svg xmlns="http://www.w3.org/2000/svg" viewBox="0 0 800 800" width="800" height="800" role="img">
  <circle cx="400" cy="400" r="352" fill="none" stroke="#ffe102" stroke-width="16"/>
  <circle cx="400" cy="400" r="330" fill="#d43539"/>
  <g transform="translate(250.0,250.0) scale(12.5)" fill="#ffffff">
    <path d="M6.6 10.8a15 15 0 006.6 6.6l2.2-2.2c.3-.3.7-.4 1-.2 1.1.4 2.3.6 3.6.6.5 0 1 .4 1 1V20c0 .6-.5 1-1 1A17 17 0 013 4c0-.6.4-1 1-1h3.5c.6 0 1 .4 1 1 0 1.2.2 2.4.6 3.6.1.3 0 .7-.2 1z"/>
    <path d="M14.5 2v1.9h3.2l-4.3 4.3 1.4 1.4 4.3-4.3v3.2H21V2z"/>
  </g>
</svg>
