<svg xmlns="http://www.w3.org/2000/svg" viewBox="0 0 800 800" width="800" height="800" role="img">
  <circle cx="400" cy="400" r="352" fill="none" stroke="#ffe102" stroke-width="16"/>
  <circle cx="400" cy="400" r="330" fill="#d43539"/>
  <g transform="translate(250.0,250.0) scale(12.5)" fill="#ffffff">
    <path d="M16.5 12a2.5 2.5 0 10-2.5-2.5A2.5 2.5 0 0016.5 12zm-9 0A2.5 2.5 0 105 9.5 2.5 2.5 0 007.5 12zm0 1.8c-2 0-6 1-6 3v2.4h12v-2.4c0-2-4-3-6-3zm9 0c-.3 0-.6 0-.9.1 1 .7 1.7 1.7 1.7 2.9v2.4h5.2v-2.4c0-2-4-3-6-3z"/>
  </g>
</svg>
